<?xml version="1.0" standalone="no"?>
<!DOCTYPE svg PUBLIC "-//W3C//DTD SVG 20010904//EN"
 "http://www.w3.org/TR/2001/REC-SVG-20010904/DTD/svg10.dtd">
<svg version="1.0" xmlns="http://www.w3.org/2000/svg"
 width="400.000000pt" height="400.000000pt" viewBox="0 0 400.000000 400.000000"
 preserveAspectRatio="xMidYMid meet">
<metadata>
Created by potrace 1.11, written by Peter Selinger 2001-2013
</metadata>
<g transform="translate(0.000000,400.000000) scale(0.100000,-0.100000)"
fill="#000000" stroke="none">
<path d="M2586 3142 c-3 -5 1 -9 9 -9 8 0 12 4 9 9 -3 4 -7 8 -9 8 -2 0 -6 -4
-9 -8z"/>
<path d="M2224 3118 l-19 -23 23 19 c21 18 27 26 19 26 -2 0 -12 -10 -23 -22z"/>
<path d="M1310 3121 c0 -6 4 -13 10 -16 6 -3 7 1 4 9 -7 18 -14 21 -14 7z"/>
<path d="M1941 3114 c0 -11 3 -14 6 -6 3 7 2 16 -1 19 -3 4 -6 -2 -5 -13z"/>
<path d="M1973 3115 c0 -7 6 -11 14 -8 7 3 13 6 13 8 0 2 -6 5 -13 8 -8 3 -14
-1 -14 -8z"/>
<path d="M2010 3123 c0 -6 8 -17 18 -24 16 -13 16 -13 2 6 -8 11 -16 22 -17
24 -2 2 -3 0 -3 -6z"/>
<path d="M1432 3103 c-5 -10 -7 -24 -5 -30 3 -7 0 -13 -7 -13 -6 0 -8 5 -4 11
6 11 -1 10 -56 -9 -9 -3 -6 2 5 11 11 9 25 17 32 17 6 0 15 4 18 10 7 11 -23
2 -42 -13 -7 -5 -19 -7 -27 -4 -8 3 -13 -1 -12 -10 0 -9 -9 -17 -21 -19 -13
-2 -23 0 -23 5 0 6 10 8 22 6 21 -4 21 -4 4 13 -14 12 -20 14 -23 5 -3 -7 -11
-13 -19 -13 -8 0 -14 -5 -14 -11 0 -5 5 -7 12 -3 7 4 8 3 4 -5 -8 -13 -16 -9
-62 31 -17 15 -21 15 -21 4 0 -8 5 -14 11 -13 6 1 10 -4 8 -11 -1 -8 2 -11 7
-8 5 4 13 1 17 -5 4 -8 3 -9 -4 -5 -7 4 -12 1 -12 -6 0 -8 -3 -9 -8 -3 -12 17
-47 41 -38 28 4 -8 2 -13 -4 -13 -6 0 -8 -5 -4 -12 5 -8 0 -9 -14 -6 -12 4
-25 1 -29 -4 -4 -7 -1 -8 7 -3 9 5 11 4 6 -3 -11 -19 -29 -14 -24 6 3 11 0 19
-7 19 -7 0 -12 -10 -10 -23 1 -15 -2 -21 -11 -17 -7 2 -10 12 -7 21 4 14 3 15
-5 2 -8 -10 -7 -19 1 -29 9 -11 9 -13 0 -8 -6 4 -14 3 -18 -3 -4 -6 -11 -8
-16 -5 -5 4 -9 2 -9 -4 0 -5 -11 -8 -25 -5 -16 3 -24 0 -23 -8 2 -7 -3 -12
-10 -13 -7 0 -17 -7 -22 -15 -5 -8 -10 -10 -10 -4 0 16 25 35 35 26 5 -4 5 -1
1 6 -7 11 -11 10 -25 -2 -10 -9 -23 -16 -29 -16 -7 0 -21 -9 -32 -20 -11 -11
-16 -20 -11 -20 5 0 14 7 21 15 7 8 18 15 24 15 6 0 2 -8 -9 -16 -11 -8 -19
-19 -18 -24 2 -5 -5 -6 -14 -3 -10 4 -14 2 -9 -5 3 -6 1 -14 -5 -18 -8 -4 -9
-3 -5 4 4 7 3 12 -3 12 -5 0 -12 -6 -14 -12 -4 -10 -6 -10 -6 0 -1 6 -6 12
-11 12 -7 0 -7 -6 -1 -19 8 -15 7 -20 -5 -25 -8 -3 -12 -11 -9 -16 4 -6 1 -9
-7 -8 -7 2 -12 -3 -10 -10 1 -8 -2 -11 -8 -7 -9 6 -14 -8 -11 -28 1 -4 -6 -10
-14 -13 -8 -3 -12 -10 -9 -15 3 -5 0 -8 -7 -7 -7 2 -14 -3 -15 -9 -1 -7 -3
-15 -4 -18 -1 -3 -3 -9 -4 -14 0 -6 -6 -15 -13 -22 -10 -10 -14 -9 -19 4 -3 9
-11 17 -16 17 -7 0 -6 -5 1 -14 8 -10 8 -20 -2 -40 -8 -14 -16 -25 -18 -23 -3
1 4 -6 14 -15 14 -13 15 -18 5 -18 -8 0 -20 6 -28 13 -12 10 -12 9 -1 -5 12
-17 8 -23 -12 -19 -5 1 -6 -3 -2 -9 3 -5 1 -10 -6 -10 -7 0 -9 -3 -6 -7 4 -3
15 2 26 11 14 13 21 14 27 5 4 -8 3 -10 -5 -5 -8 5 -10 0 -7 -18 3 -15 1 -24
-5 -21 -5 4 -6 11 -3 17 4 7 2 8 -4 4 -8 -4 -8 -15 -2 -31 7 -20 6 -25 -5 -25
-8 0 -15 -5 -15 -11 0 -6 7 -8 18 -4 12 4 11 1 -6 -15 -19 -18 -22 -40 -6 -40
3 0 3 4 -1 9 -3 5 -2 12 3 15 4 2 8 -6 8 -19 0 -14 -5 -21 -12 -18 -7 2 -15
-1 -20 -8 -4 -7 -3 -10 3 -6 6 4 14 0 17 -9 5 -12 2 -15 -11 -9 -28 11 -56 15
-49 7 7 -7 11 -8 37 -11 5 0 8 -5 4 -10 -3 -5 0 -13 6 -17 8 -5 9 -3 4 6 -5 8
-4 11 3 7 5 -4 9 -15 7 -25 -2 -9 -4 -19 -4 -22 -1 -3 -11 6 -22 20 -19 23
-19 23 -9 2 6 -12 8 -27 5 -32 -4 -6 1 -7 11 -3 11 4 15 3 10 -5 -3 -6 -2 -14
4 -17 7 -4 7 -11 2 -18 -5 -7 -8 -20 -7 -29 4 -20 -5 -23 -23 -8 -9 7 -9 7 -2
-2 13 -16 13 -41 0 -33 -5 3 -10 1 -10 -4 0 -14 13 -14 28 1 7 7 12 8 12 2 0
-5 -5 -15 -12 -22 -9 -9 -9 -12 1 -12 7 0 9 -5 6 -10 -4 -6 -12 -7 -18 -3 -7
3 -4 -3 6 -14 15 -17 16 -25 7 -42 -6 -12 -7 -21 -3 -21 5 0 8 -13 8 -29 1
-21 -3 -27 -14 -23 -9 3 -12 1 -7 -6 3 -6 -1 -15 -10 -20 -15 -8 -15 -10 1
-15 9 -4 13 -11 10 -17 -4 -6 -11 -7 -17 -4 -7 4 -7 0 0 -12 5 -11 8 -29 6
-41 -2 -12 3 -23 12 -27 10 -4 13 -2 7 7 -10 16 -14 69 -4 63 4 -3 8 4 8 15 1
10 -3 19 -8 19 -6 0 -7 5 -4 10 3 6 10 10 14 10 10 0 8 -61 -3 -78 -4 -7 -4
-12 1 -12 4 0 8 -13 8 -29 1 -21 -3 -28 -15 -24 -10 3 -8 -1 5 -12 14 -12 16
-16 5 -15 -8 1 -22 2 -30 1 -13 -1 -13 -3 -1 -10 8 -5 21 -6 30 -3 14 5 14 3
2 -11 -7 -9 -18 -14 -24 -10 -6 3 -7 1 -3 -5 4 -6 13 -9 20 -6 9 3 13 -3 12
-22 -1 -17 -9 -30 -21 -35 -20 -7 -20 -8 0 -9 11 -2 23 -2 26 -2 3 1 4 -10 1
-23 -2 -14 -9 -25 -16 -25 -6 0 -5 -4 3 -9 17 -11 6 -45 -12 -38 -8 3 -14 -1
-14 -8 0 -7 6 -11 12 -9 6 3 12 -2 12 -11 0 -9 -6 -14 -14 -11 -8 4 -11 1 -8
-5 4 -6 14 -8 22 -5 10 4 13 0 11 -17 -2 -12 -9 -21 -16 -19 -6 1 -12 -2 -12
-8 0 -15 11 -12 32 7 23 21 22 -1 -2 -27 -11 -12 -19 -14 -30 -6 -12 8 -13 8
-3 -4 12 -13 30 -20 60 -22 9 -1 8 -10 -3 -36 -12 -31 -12 -33 1 -22 17 14 21
0 4 -17 -8 -8 -7 -13 2 -18 7 -5 10 -4 6 2 -3 5 0 10 8 10 11 0 12 -4 4 -14
-9 -10 -8 -13 1 -13 8 0 11 -3 8 -6 -4 -3 -15 -1 -27 5 -13 8 -22 8 -26 1 -4
-6 -3 -9 2 -8 14 4 53 -13 53 -23 0 -13 -13 -11 -30 4 -12 10 -12 9 0 -6 8
-11 21 -16 33 -13 18 4 18 4 2 -14 -16 -18 -16 -18 7 -13 18 4 20 3 8 -6 -13
-9 -13 -11 3 -11 15 0 22 -11 18 -32 0 -5 3 -8 9 -8 5 0 10 -7 10 -16 0 -8 4
-12 10 -9 5 3 10 1 10 -4 0 -6 -4 -11 -10 -11 -5 0 -10 -5 -10 -11 0 -6 9 -8
20 -4 15 5 18 3 14 -9 -3 -9 -11 -13 -18 -9 -6 3 -7 2 -3 -3 4 -4 18 -9 30 -9
12 0 21 -6 19 -13 -1 -6 2 -12 8 -12 5 0 10 -5 10 -11 0 -8 -4 -8 -13 -1 -9 8
-17 8 -27 0 -12 -8 -12 -9 3 -4 9 3 17 1 17 -5 0 -6 8 -8 18 -5 23 8 46 -9 39
-28 -3 -8 -1 -18 5 -22 6 -4 8 -3 4 4 -3 6 -2 13 3 16 5 3 14 -8 21 -24 7 -17
17 -30 23 -30 5 0 16 -8 24 -18 13 -15 13 -15 4 4 -6 12 -7 24 -4 28 9 8 34
-14 27 -25 -3 -5 2 -9 11 -9 9 0 13 4 10 10 -3 5 8 2 24 -8 17 -9 31 -21 31
-26 0 -5 -6 -3 -14 3 -11 9 -16 9 -22 0 -4 -7 -3 -9 4 -5 6 3 13 2 17 -4 3 -5
1 -10 -6 -10 -7 0 -10 -3 -6 -6 9 -9 48 22 39 32 -4 4 2 2 12 -6 11 -8 22 -15
25 -15 3 0 5 -3 4 -7 -2 -4 11 -6 27 -4 27 3 29 1 25 -23 -3 -14 -2 -20 1 -13
4 9 9 10 19 2 9 -8 15 -8 20 0 4 6 1 9 -6 8 -6 -2 -13 2 -16 9 -3 7 3 9 16 6
12 -3 21 -9 21 -14 0 -5 5 -9 11 -9 5 0 8 4 5 8 -8 13 42 8 55 -5 8 -8 2 -10
-20 -8 -17 1 -34 -1 -37 -6 -3 -5 -1 -8 5 -7 5 2 16 -6 25 -17 14 -20 15 -20
13 0 -1 11 4 20 11 21 6 1 17 2 23 3 5 0 7 7 3 14 -5 9 -4 9 6 0 7 -6 19 -9
26 -6 9 3 14 -1 14 -12 0 -9 -4 -14 -9 -10 -5 3 -12 1 -15 -4 -4 -5 2 -8 11
-6 10 2 21 4 26 4 4 1 6 6 5 12 -3 13 32 21 47 10 5 -4 33 -7 62 -7 28 1 51
-1 51 -4 -1 -19 4 -29 18 -34 14 -5 15 -4 4 9 -11 13 -11 18 0 28 8 8 11 8 7
1 -4 -7 0 -17 7 -23 12 -10 14 -8 10 11 l-5 23 12 -22 c13 -24 33 -30 44 -13
3 5 0 7 -8 4 -8 -3 -17 2 -21 12 -5 13 -3 14 6 7 7 -6 21 -9 30 -8 10 2 20 -5
24 -17 6 -20 6 -20 21 1 16 24 33 28 33 7 0 -8 6 -16 13 -19 8 -3 14 1 14 9 0
7 -4 11 -9 8 -4 -3 -8 -1 -8 4 0 5 16 9 35 9 19 -1 35 -5 35 -10 0 -5 -7 -7
-15 -4 -19 8 -30 -12 -16 -26 9 -9 10 -7 5 8 -8 20 -8 20 21 1 18 -12 25 -14
18 -5 -7 8 -8 20 -4 28 11 18 44 10 58 -14 7 -12 12 -15 13 -6 0 7 6 11 15 8
8 -4 17 -1 21 5 4 6 3 8 -3 5 -6 -4 -14 0 -17 8 -4 13 -2 13 14 5 10 -5 26 -7
34 -4 9 3 16 1 16 -4 0 -6 -9 -14 -20 -17 -11 -3 -20 -11 -20 -17 0 -6 6 -6
15 2 17 14 79 24 71 12 -3 -5 1 -9 9 -9 13 0 13 3 0 17 -14 16 -11 17 45 16
33 0 60 -4 60 -8 0 -4 -4 -9 -10 -9 -5 -1 -14 -2 -19 -3 -5 0 -13 -4 -17 -8
-3 -4 4 -5 17 -2 49 11 80 13 75 6 -3 -5 1 -9 9 -9 13 0 13 3 0 17 -14 16 -11
17 45 16 33 0 60 -4 60 -8 0 -4 -4 -9 -10 -9 -5 -1 -14 -2 -19 -3 -5 0 -13 -4
-17 -8 -3 -4 4 -5 17 -2 49 11 80 13 75 6 -3 -5 1 -9 9 -9 13 0 13 3 -1 18
-15 17 -13 17 31 15 25 -1 49 2 52 7 3 6 12 2 20 -8 7 -11 13 -13 13 -7 0 8
10 10 31 7 17 -3 28 -2 25 3 -6 10 29 8 58 -4 12 -4 17 -4 13 2 -3 6 5 10 17
10 14 0 23 -6 22 -14 -1 -8 6 -17 14 -19 10 -3 11 -2 3 4 -8 5 -9 14 -3 23 8
12 10 12 16 -3 3 -9 10 -17 15 -17 4 0 6 6 3 14 -4 11 0 13 15 9 12 -3 21 -12
21 -21 0 -9 7 -6 21 12 19 25 39 27 39 5 0 -6 -5 -7 -12 -3 -7 4 -8 3 -4 -5 6
-9 11 -9 22 0 9 7 11 16 5 23 -6 8 -2 11 14 11 18 0 21 -3 13 -13 -6 -7 -8
-15 -4 -19 3 -3 6 -1 6 6 0 7 5 9 10 6 6 -3 10 1 10 9 0 8 5 18 12 22 7 4 8 3
4 -4 -4 -7 -1 -12 8 -12 8 0 16 -5 18 -10 2 -6 9 0 17 12 13 21 13 22 -2 10
-12 -10 -17 -10 -23 -1 -4 7 -3 9 4 5 6 -3 13 -2 16 2 3 5 17 7 31 4 17 -3 25
0 25 9 0 11 2 11 10 -1 10 -16 -13 -36 -29 -25 -11 6 -8 -22 4 -32 4 -4 5 -3
2 3 -8 13 20 27 34 18 5 -3 8 -1 7 5 -2 5 6 17 17 25 14 11 15 15 5 14 -8 -2
-19 -7 -23 -13 -5 -6 -7 -4 -4 5 2 8 10 14 16 12 6 -1 11 4 11 10 0 7 5 5 11
-5 11 -19 29 -23 29 -6 0 5 -5 7 -12 3 -7 -4 -8 -3 -4 5 4 6 11 9 16 6 4 -3
10 1 13 7 3 8 9 3 16 -12 8 -19 10 -21 9 -5 -3 28 10 45 29 38 12 -5 14 -3 8
7 -5 8 -4 11 3 6 6 -4 9 -14 6 -24 -5 -15 -5 -15 6 1 6 9 8 22 4 29 -4 6 -3 8
4 4 5 -3 12 -3 15 1 2 5 2 3 1 -4 -2 -7 2 -15 8 -19 7 -5 8 -2 3 6 -6 10 -4
12 8 7 18 -7 44 18 28 27 -13 8 -2 37 13 35 23 -3 37 1 32 9 -2 4 -1 14 3 21
6 10 10 9 14 -4 4 -9 3 -13 -3 -10 -15 9 -12 -1 4 -14 12 -10 14 -8 12 13 -2
17 8 38 30 63 18 20 31 41 28 45 -3 5 0 7 7 6 7 -2 13 3 14 10 0 15 11 20 22
8 5 -6 2 -6 -7 -1 -8 5 -12 4 -7 0 4 -5 0 -17 -10 -27 -9 -10 -13 -18 -9 -18
19 0 44 45 36 65 -6 15 -2 29 10 46 l19 24 9 -24 c9 -24 9 -24 14 -3 4 12 3
20 -2 17 -4 -3 -11 2 -14 11 -5 12 -2 15 10 10 14 -5 15 -4 4 9 -10 12 -10 18
1 31 10 13 10 17 -2 25 -10 8 -6 9 16 6 17 -2 24 -2 18 0 -7 3 -13 9 -13 14 0
6 -5 7 -11 3 -6 -3 -3 8 6 25 9 17 13 36 10 41 -3 5 4 11 15 15 19 6 22 10 24
38 1 6 6 15 11 19 6 5 5 8 -3 8 -7 0 -10 5 -7 10 3 6 1 10 -5 10 -6 0 -8 -12
-5 -30 4 -23 1 -32 -17 -41 -21 -11 -22 -11 -9 4 7 10 10 17 6 17 -4 0 -2 7 5
15 10 12 10 15 0 15 -9 0 -10 3 -1 13 8 10 7 17 -2 27 -9 10 -9 11 1 6 6 -4
12 -3 12 3 0 5 3 17 7 27 5 13 3 15 -8 9 -11 -6 -11 -5 -2 5 6 7 9 19 6 26 -3
8 0 14 7 14 6 0 8 -5 4 -12 -6 -10 -5 -10 8 -1 8 7 18 10 21 6 4 -3 7 -1 7 6
0 6 -6 11 -12 10 -28 -3 -34 2 -34 31 0 32 5 37 24 18 7 -7 12 -9 12 -4 0 13
-27 35 -35 28 -5 -4 -5 -1 -1 6 6 9 11 10 20 3 9 -8 13 -7 13 4 0 8 -4 12 -8
9 -12 -7 -6 40 6 49 5 5 0 6 -11 2 -19 -5 -21 -2 -19 27 4 45 4 45 20 24 8
-11 15 -16 15 -10 -1 17 -27 44 -36 36 -5 -4 -5 -3 -1 3 5 5 13 10 19 10 6 0
13 10 14 23 2 12 -1 22 -7 22 -5 0 -8 4 -5 8 2 4 0 14 -5 22 -7 11 -8 8 -5
-10 3 -14 5 -25 6 -25 1 0 3 -8 5 -17 2 -9 -2 -15 -9 -12 -6 2 -11 21 -11 42
0 30 3 36 18 34 9 -2 17 2 17 8 0 6 -4 9 -9 5 -12 -7 -10 38 2 46 5 3 1 9 -8
12 -9 4 -13 3 -10 -3 3 -6 2 -10 -3 -10 -5 0 -9 14 -8 30 1 29 21 39 21 11 0
-18 21 -26 30 -12 4 7 0 8 -11 4 -12 -4 -15 -3 -10 6 4 6 2 18 -4 26 -6 8 -9
19 -6 24 4 5 1 13 -5 17 -7 4 -9 3 -5 -4 3 -6 3 -13 -2 -16 -5 -3 -7 14 -6 37
3 65 3 67 17 63 6 -1 9 -1 5 1 -5 3 -8 9 -8 14 0 6 6 7 13 3 8 -5 8 -2 -2 9
-14 18 -26 24 -17 8 3 -5 -2 -15 -12 -22 -15 -12 -15 -12 -5 1 11 15 13 20 13
39 0 4 12 7 26 5 14 -1 23 1 19 4 -3 4 -12 7 -18 8 -7 0 -19 2 -28 2 -9 1 -16
9 -16 16 0 11 5 12 18 5 28 -15 30 -11 6 14 -12 13 -24 22 -27 21 -3 -1 -5 16
-6 37 -1 21 2 39 6 39 4 0 11 7 14 16 5 14 4 15 -8 5 -11 -9 -15 -8 -19 3 -4
9 -1 18 5 22 7 4 8 3 4 -4 -5 -8 -1 -10 9 -5 13 4 14 8 4 13 -7 5 -19 6 -27 3
-12 -5 -12 -3 -1 15 7 11 17 19 21 16 4 -3 5 2 2 10 -3 9 -10 16 -16 16 -5 0
-7 -4 -3 -9 3 -5 1 -12 -5 -16 -6 -4 -10 8 -10 30 0 24 4 34 11 29 7 -4 7 2
-1 17 -17 33 -24 38 -16 14 3 -11 1 -27 -5 -35 -9 -13 -10 -13 -8 0 3 32 -1
51 -11 45 -5 -3 -7 0 -4 8 3 8 -1 21 -9 28 -9 9 -11 22 -6 34 13 33 10 37 -18
33 -17 -2 -28 2 -28 9 0 27 -52 86 -67 77 -6 -4 -8 -2 -5 4 4 5 -8 23 -25 38
-18 15 -32 32 -30 37 2 5 -4 7 -12 4 -8 -3 -22 3 -31 13 -10 11 -22 18 -29 17
-6 -1 -10 8 -8 22 2 20 0 22 -13 11 -9 -7 -19 -10 -22 -6 -4 4 -2 10 4 14 8 5
9 13 3 22 -8 13 -10 13 -10 -1 0 -9 -9 -19 -20 -22 -13 -3 -18 -1 -13 6 4 6 0
8 -10 4 -10 -3 -17 -3 -17 2 0 4 -6 8 -12 9 -26 3 -63 10 -63 12 0 1 -8 3 -18
5 -26 5 -32 13 -19 28 9 10 5 13 -16 14 -24 1 -24 1 -7 -7 22 -9 21 -10 -13
-14 -13 -2 -26 2 -29 7 -4 6 -1 7 8 2 8 -5 11 -5 7 0 -4 4 -2 15 5 24 10 14
10 14 -4 4 -9 -7 -20 -9 -24 -5 -5 4 -6 2 -2 -3 3 -6 2 -17 -4 -25 -7 -12 -9
-11 -10 5 -1 11 -1 24 0 28 1 5 -3 6 -8 3 -5 -3 -12 1 -15 10 -5 13 -9 14 -21
4 -8 -7 -12 -16 -9 -21 3 -5 -6 -9 -20 -9 -14 0 -26 -6 -26 -12 0 -9 -4 -8
-10 2 -5 8 -10 11 -10 6 0 -5 -6 -4 -12 2 -19 15 -30 15 -39 0 -7 -10 -9 -9
-9 3 0 20 -27 32 -36 17 -4 -6 -3 -8 4 -4 6 3 13 3 16 -2 3 -5 0 -9 -7 -10
-39 -3 -69 -10 -75 -17 -4 -5 1 -5 11 -2 13 5 16 3 10 -6 -13 -21 -14 -49 -1
-41 7 4 8 3 4 -5 -4 -6 -11 -9 -16 -6 -5 3 -12 0 -16 -7 -10 -16 -13 -48 -3
-43 4 3 10 -2 13 -11 9 -24 8 -26 -13 -14 -25 13 -31 13 -31 0 0 -5 3 -9 8 -9
20 3 32 -2 26 -12 -4 -8 1 -7 17 1 l24 11 -24 -20 c-21 -19 -18 -26 10 -23 3
1 4 -10 1 -23 -2 -14 -8 -25 -13 -25 -5 0 -6 6 -3 14 8 22 -12 28 -27 8 -13
-15 -12 -16 4 -3 16 13 25 2 10 -13 -9 -9 -11 -46 -2 -41 4 3 10 -2 13 -11 5
-12 0 -14 -25 -10 -17 2 -28 2 -25 -2 6 -6 25 -10 58 -14 12 -2 14 -7 8 -19
-5 -9 -6 -19 -3 -23 12 -12 -13 -6 -26 7 -9 8 -12 8 -7 0 3 -6 0 -14 -6 -17
-9 -4 -8 -5 2 -5 29 2 37 -1 37 -16 0 -11 -4 -12 -13 -4 -8 7 -14 6 -20 -2 -4
-7 -3 -9 3 -6 6 4 14 0 17 -9 3 -8 10 -12 16 -9 6 3 7 -1 4 -9 -3 -9 -10 -16
-16 -16 -5 0 -6 6 -2 13 5 8 3 8 -9 -2 -20 -16 -13 -33 11 -24 15 6 16 5 2
-12 -9 -11 -10 -16 -2 -11 7 4 12 1 12 -9 0 -10 -5 -14 -12 -10 -7 4 -2 -3 12
-14 14 -11 29 -21 33 -21 5 0 5 -4 2 -10 -3 -5 -2 -10 4 -10 5 0 12 6 14 13 4
9 6 9 6 -1 1 -7 5 -10 11 -7 6 3 7 -1 4 -9 -3 -9 -10 -13 -15 -10 -5 3 -6 -2
-3 -11 6 -14 10 -12 24 10 12 18 19 23 22 14 3 -8 11 -14 19 -14 18 0 24 -18
7 -23 -9 -2 -8 0 2 7 12 8 11 10 -8 8 -12 0 -22 -4 -22 -8 0 -11 22 -16 58
-13 18 1 31 0 28 -3 -8 -8 18 -32 28 -25 5 3 6 0 2 -7 -6 -9 -12 -9 -25 3 -10
9 -21 13 -26 9 -4 -5 -5 -2 -1 4 5 8 2 11 -7 7 -7 -2 -14 -11 -14 -19 0 -10 5
-11 18 -5 20 11 48 -13 29 -25 -5 -3 -10 -1 -10 6 0 7 -3 9 -6 6 -4 -4 -2 -13
4 -20 7 -8 8 -18 4 -23 -4 -4 1 -2 10 5 10 7 15 17 12 22 -3 5 4 9 15 9 12 0
21 -7 21 -15 0 -24 2 -29 17 -40 12 -9 11 -11 -5 -11 -13 0 -19 6 -17 16 2 9
-1 23 -7 31 -8 11 -9 10 -4 -3 3 -12 0 -18 -9 -18 -7 0 -16 -4 -19 -9 -4 -5 4
-7 16 -4 23 4 23 4 3 -13 -16 -13 -17 -16 -3 -11 22 8 33 -9 19 -27 -8 -10 -5
-15 12 -23 18 -9 24 -8 24 2 0 7 -6 11 -13 8 -8 -3 -11 5 -10 21 1 26 1 26 17
5 10 -13 15 -37 13 -65 -1 -24 1 -42 5 -40 3 2 6 -18 6 -44 0 -26 -3 -46 -7
-43 -11 6 -10 -5 2 -28 6 -10 7 -19 3 -19 -13 0 -34 40 -27 51 11 18 13 78 4
84 -6 3 -7 -1 -4 -9 4 -10 1 -16 -7 -16 -9 0 -10 -3 -4 -8 13 -9 18 -32 7 -32
-5 0 -8 -13 -8 -29 0 -17 3 -28 6 -26 4 2 13 -7 20 -20 7 -13 18 -22 23 -18 6
3 7 1 3 -6 -4 -6 -12 -9 -17 -6 -14 9 -11 -8 6 -32 8 -12 11 -24 6 -27 -4 -3
-7 -17 -5 -31 2 -21 -1 -25 -16 -20 -21 7 -36 -10 -19 -21 8 -4 9 -3 5 4 -11
18 10 14 25 -5 8 -10 9 -14 2 -10 -6 4 -14 3 -18 -3 -3 -5 1 -10 9 -10 8 0 18
-5 22 -12 5 -7 3 -8 -6 -3 -10 6 -12 1 -8 -19 4 -17 1 -25 -6 -23 -6 3 -10 10
-8 16 1 7 -2 10 -8 6 -7 -4 -7 -12 0 -26 6 -11 14 -18 18 -15 4 2 7 -9 7 -24
1 -16 -3 -26 -7 -24 -11 7 -10 -4 2 -26 7 -13 7 -21 0 -25 -6 -4 -7 -12 -4
-18 4 -7 3 -8 -1 -4 -13 11 -15 38 -3 31 7 -4 8 -2 4 4 -9 15 -46 -3 -45 -21
0 -9 2 -9 6 1 8 19 19 14 20 -10 1 -11 8 -25 15 -29 9 -6 9 -9 1 -9 -6 0 -10
-11 -9 -24 2 -17 -1 -23 -11 -19 -11 4 -11 8 -1 22 11 14 11 14 -4 3 -11 -9
-18 -10 -23 -2 -3 5 -11 10 -17 10 -5 0 0 -8 13 -18 22 -19 37 -58 16 -45 -6
4 -8 0 -4 -9 8 -22 -29 -59 -50 -51 -11 4 -14 3 -9 -5 4 -6 1 -20 -6 -31 -9
-15 -16 -17 -25 -9 -9 7 -14 6 -19 -5 -6 -16 -44 -12 -44 5 0 5 -6 3 -14 -4
-15 -14 -12 -28 5 -28 6 0 7 4 4 10 -4 6 1 7 11 3 14 -5 14 -7 2 -14 -19 -11
-60 0 -51 14 3 6 1 7 -6 3 -9 -6 -9 -11 -1 -21 8 -10 4 -12 -20 -10 -16 1 -30
-1 -30 -5 0 -5 -18 -7 -40 -5 -22 2 -40 0 -40 -4 0 -4 -9 -7 -20 -7 -11 0 -20
4 -20 8 0 4 -10 8 -22 8 -17 0 -19 3 -10 12 7 7 12 16 12 22 0 5 -7 1 -15 -10
-12 -17 -12 -20 2 -31 13 -10 13 -12 -6 -10 -20 1 -26 14 -22 45 1 6 -3 12 -9
12 -5 0 -9 -6 -8 -12 2 -7 -3 -12 -10 -10 -8 1 -11 -2 -7 -8 3 -6 11 -8 16 -5
5 3 6 0 3 -8 -2 -7 -11 -14 -19 -14 -8 0 -11 5 -8 10 4 7 -1 7 -13 2 -32 -13
-57 -12 -75 3 -10 9 -15 20 -12 25 4 6 1 7 -6 2 -9 -5 -10 -10 -2 -18 15 -15
14 -24 -4 -24 -8 0 -11 5 -8 10 4 7 -1 7 -13 2 -30 -12 -58 -13 -66 -1 -5 7
-11 8 -15 1 -12 -15 -36 -18 -27 -4 5 9 2 10 -12 4 -30 -12 -58 -13 -66 -1 -5
7 -11 8 -15 1 -12 -15 -36 -18 -27 -4 5 9 2 10 -12 4 -30 -12 -58 -13 -66 -1
-5 7 -11 8 -15 1 -12 -15 -36 -18 -27 -4 5 9 2 10 -12 5 -28 -12 -64 -15 -64
-6 0 4 -7 10 -14 13 -10 4 -13 1 -10 -7 5 -14 -23 -15 -44 -2 -7 4 -12 2 -12
-5 0 -9 -3 -9 -14 0 -8 7 -26 10 -41 7 -17 -3 -28 0 -32 10 -3 8 -9 14 -14 14
-4 0 -6 -7 -3 -15 4 -8 1 -15 -5 -15 -6 0 -10 5 -9 11 2 6 -3 14 -11 17 -8 3
-11 0 -7 -7 4 -6 3 -11 -2 -11 -18 0 -21 29 -4 32 14 3 13 5 -5 10 -18 5 -21
2 -17 -21 3 -18 2 -22 -5 -12 -7 11 -9 11 -14 0 -4 -11 -6 -11 -6 -1 -1 7 -6
10 -13 6 -7 -4 -8 -3 -4 5 5 8 0 10 -17 7 -16 -3 -33 3 -46 15 -23 22 -35 25
-26 7 4 -7 -2 -3 -13 9 -11 12 -23 19 -26 15 -4 -3 -4 2 0 11 4 12 2 17 -7 15
-7 -2 -14 4 -14 12 0 8 -7 14 -15 12 -8 -2 -12 0 -7 4 4 4 0 18 -8 31 -9 13
-11 23 -5 23 5 0 10 -4 10 -8 0 -5 7 -17 15 -28 13 -16 14 -16 9 -1 -5 13 -2
16 12 11 15 -5 16 -4 4 4 -8 6 -18 8 -22 6 -4 -3 -8 0 -8 5 0 10 14 15 33 12
5 -1 6 3 2 8 -3 6 -13 7 -23 4 -15 -6 -14 -3 3 18 l20 24 -28 -24 c-26 -23
-28 -24 -44 -8 -11 11 -13 17 -5 17 16 0 16 37 0 43 -10 4 -10 6 -1 6 8 1 10
8 6 19 -6 15 -5 15 10 3 10 -7 17 -9 17 -3 0 6 -5 12 -11 14 -9 3 -9 10 0 26
6 12 9 22 7 22 -3 0 -12 -12 -19 -26 -9 -17 -17 -23 -21 -15 -4 6 -2 11 5 11
8 0 7 5 -2 17 -8 9 -9 14 -3 10 7 -4 17 0 24 8 7 8 16 13 20 10 5 -3 11 -1 14
4 4 5 -2 8 -11 6 -10 -2 -18 -4 -18 -6 0 -1 -10 -3 -23 -4 -18 -2 -20 0 -11
11 6 8 14 12 18 10 4 -3 13 0 21 6 12 8 11 9 -4 4 -13 -5 -17 -2 -12 9 3 8 1
15 -3 15 -5 0 -11 -6 -14 -12 -3 -7 -4 -3 -4 9 1 18 6 22 22 17 18 -5 18 -4 5
7 -22 20 -47 54 -33 46 7 -5 11 -1 11 10 0 10 1 25 3 33 2 9 -2 14 -10 12 -12
-3 -12 -1 0 14 8 9 13 19 12 21 -2 1 -3 10 -3 18 0 14 3 14 24 0 18 -12 26
-13 32 -4 4 7 3 9 -3 6 -5 -3 -22 3 -39 14 l-29 20 28 -5 c16 -3 25 -1 22 5
-4 5 -11 6 -17 3 -7 -5 -9 -1 -5 9 3 10 2 17 -2 17 -5 0 -11 -6 -14 -12 -3 -7
-4 -3 -4 10 1 12 2 22 3 22 2 0 14 -4 29 -10 17 -7 24 -7 20 0 -3 6 -12 10
-19 10 -8 0 -20 8 -27 17 -8 10 -9 14 -2 10 6 -4 14 -3 18 3 3 5 0 10 -8 10
-8 0 -18 7 -21 16 -3 8 -2 13 3 10 5 -3 16 6 25 19 9 14 21 23 26 20 5 -3 12
0 16 6 4 8 3 9 -4 5 -7 -4 -12 -1 -12 6 0 8 -5 6 -11 -4 -5 -10 -15 -18 -21
-18 -9 0 -9 3 0 12 19 19 14 32 -5 17 -16 -12 -17 -12 -6 2 7 9 9 20 5 24 -4
5 1 5 10 2 10 -3 20 -2 23 4 4 5 11 7 16 4 5 -4 9 -2 9 4 0 5 -9 9 -19 8 -11
0 -17 -6 -14 -12 4 -5 2 -6 -3 -2 -5 5 -9 12 -9 15 0 4 -4 14 -9 22 -5 8 -5
12 -1 7 5 -4 19 0 32 8 21 14 27 12 24 -8 -1 -5 3 -6 9 -2 8 5 8 11 -1 21 -6
7 -15 12 -19 9 -4 -3 -11 2 -14 11 -4 12 -2 15 9 10 8 -3 15 -1 15 5 0 6 5 7
10 4 6 -3 10 -1 10 4 0 6 9 20 20 31 11 11 16 20 12 20 -4 0 -13 -5 -20 -12
-9 -9 -12 -9 -12 1 0 7 -5 9 -12 5 -7 -4 -2 5 11 19 13 15 28 24 32 21 5 -3 9
3 9 13 0 13 2 15 9 5 4 -7 12 -12 17 -11 22 4 35 -2 28 -13 -4 -7 -3 -8 4 -4
6 4 9 13 6 21 -4 8 -9 13 -13 11 -4 -3 -13 0 -21 5 -12 8 -11 9 5 7 11 -2 19
2 18 9 -2 8 4 10 14 6 12 -5 14 -3 8 8 -7 11 -6 12 7 2 8 -7 18 -10 22 -6 4 4
19 9 34 11 15 2 32 8 37 14 7 8 4 9 -10 4 -19 -6 -19 -5 -2 8 16 13 19 48 4
62 -4 4 -2 13 4 21 9 10 8 13 -2 13 -11 0 -11 2 0 9 13 8 13 12 0 27 -11 14
-11 16 0 9 11 -6 13 -1 9 24 -4 25 -1 31 13 31 10 0 21 4 24 10 3 6 -1 7 -10
4 -20 -8 -48 15 -36 30 9 11 11 17 11 36 0 6 6 10 14 10 8 0 18 4 21 10 7 11
-23 3 -41 -11 -6 -5 -11 -3 -11 6 0 8 4 12 9 9 4 -3 8 4 8 15 0 12 -6 21 -12
21 -9 0 -8 4 2 10 13 9 13 11 0 20 -10 6 -11 10 -2 10 15 0 17 56 2 65 -6 4
-7 12 -3 18 12 19 14 49 3 42 -5 -3 -10 1 -10 9 0 9 -5 16 -11 16 -5 0 -7 -4
-4 -10 9 -15 -2 -12 -19 6 -9 9 -16 11 -16 4 0 -6 -4 -8 -10 -5 -5 3 -10 1
-10 -5 0 -7 -5 -6 -14 2 -10 9 -11 18 -5 31 6 9 7 17 5 17 -3 0 -9 -8 -14 -17z
m1358 -47 c-12 -12 -29 1 -25 22 2 9 4 19 4 21 1 3 7 -4 15 -15 8 -10 11 -23
6 -28z m-1596 -22 c3 -8 2 -12 -4 -9 -6 3 -10 10 -10 16 0 14 7 11 14 -7z
m1353 -74 c-1 -10 -5 -16 -9 -14 -5 3 -6 10 -3 15 4 5 1 9 -5 9 -6 0 -8 5 -5
10 9 15 24 2 22 -20z m0 -165 c0 -20 -4 -19 -17 5 -8 15 -8 18 3 14 8 -3 14
-11 14 -19z m806 -70 c-3 -9 -8 -14 -10 -11 -3 3 -2 9 2 15 9 16 15 13 8 -4z
m-2652 -88 c-13 -13 -26 -3 -16 12 3 6 11 8 17 5 6 -4 6 -10 -1 -17z m629
-238 c0 -14 -29 -17 -34 -4 -3 9 2 13 15 12 10 -1 19 -4 19 -8z m-46 -57 c3
-5 -1 -9 -9 -9 -8 0 -12 4 -9 9 3 4 7 8 9 8 2 0 6 -4 9 -8z m2186 -296 c0 -3
-4 -8 -10 -11 -5 -3 -10 -1 -10 4 0 6 5 11 10 11 6 0 10 -2 10 -4z m0 -240 c0
-3 -4 -8 -10 -11 -5 -3 -10 -1 -10 4 0 6 5 11 10 11 6 0 10 -2 10 -4z m-2820
-220 c0 -11 -19 -15 -25 -6 -3 5 1 10 9 10 9 0 16 -2 16 -4z m4 -98 c-3 -4 -9
-8 -15 -8 -5 0 -9 4 -9 8 0 5 7 9 15 9 8 0 12 -4 9 -9z m279 -446 c4 9 6 9 6
1 2 -23 -18 -23 -29 -1 -10 21 -10 22 3 5 11 -14 16 -15 20 -5z m2237 -16 c0
-11 -19 -15 -25 -6 -3 5 1 10 9 10 9 0 16 -2 16 -4z m-460 -128 c0 -11 -12
-10 -30 2 -12 7 -10 9 8 7 12 0 22 -5 22 -9z m-730 -18 c0 -5 -2 -10 -4 -10
-3 0 -8 5 -11 10 -3 6 -1 10 4 10 6 0 11 -4 11 -10z m160 0 c0 -5 -2 -10 -4
-10 -3 0 -8 5 -11 10 -3 6 -1 10 4 10 6 0 11 -4 11 -10z m160 0 c0 -5 -2 -10
-4 -10 -3 0 -8 5 -11 10 -3 6 -1 10 4 10 6 0 11 -4 11 -10z"/>
<path d="M2314 3109 c-3 -6 2 -18 12 -27 17 -16 17 -16 5 0 -7 9 -10 22 -6 28
3 5 4 10 1 10 -3 0 -8 -5 -12 -11z"/>
<path d="M1226 3098 c3 -5 10 -6 15 -3 13 9 11 12 -6 12 -8 0 -12 -4 -9 -9z"/>
<path d="M1346 3098 c3 -5 10 -6 15 -3 13 9 11 12 -6 12 -8 0 -12 -4 -9 -9z"/>
<path d="M1460 3100 c-8 -5 -12 -12 -9 -15 4 -3 12 1 19 10 14 17 11 19 -10 5z"/>
<path d="M1497 3099 c7 -7 15 -10 18 -7 3 3 -2 9 -12 12 -14 6 -15 5 -6 -5z"/>
<path d="M1530 3100 c0 -5 5 -10 11 -10 5 0 7 5 4 10 -3 6 -8 10 -11 10 -2 0
-4 -4 -4 -10z"/>
<path d="M1853 3097 c-3 -5 -11 -6 -19 -3 -8 3 -11 0 -7 -10 5 -13 8 -13 24 2
12 11 19 13 19 5 0 -7 4 -10 9 -6 5 3 12 1 15 -4 4 -5 2 -12 -3 -15 -5 -4 -12
-2 -16 4 -4 7 -12 7 -25 0 -14 -7 -23 -6 -35 6 -17 17 -45 12 -45 -7 0 -7 -9
-4 -22 7 -22 18 -22 18 -8 0 14 -18 13 -18 -10 -11 -25 7 -25 7 -5 -10 17 -14
17 -16 3 -11 -10 3 -18 1 -18 -4 0 -6 4 -10 9 -10 5 0 12 -7 15 -16 4 -10 2
-13 -6 -8 -8 5 -9 2 -5 -9 3 -10 3 -17 -1 -17 -5 0 -17 -7 -28 -16 -18 -15
-18 -15 3 -5 28 14 30 14 36 -3 4 -9 0 -12 -13 -9 -10 3 -21 -1 -26 -8 -5 -9
-2 -11 8 -6 11 4 18 -1 21 -14 4 -15 2 -17 -6 -10 -13 10 -19 -30 -16 -106 1
-10 -1 -28 -4 -40 -4 -16 0 -24 15 -29 16 -5 18 -8 7 -15 -8 -5 -9 -9 -3 -9 7
0 14 -7 18 -15 4 -13 2 -13 -14 -5 -28 15 -37 12 -14 -5 19 -15 19 -15 -1 -9
-18 5 -18 4 -2 -6 9 -6 23 -8 30 -4 6 4 2 -3 -10 -15 -13 -12 -23 -25 -24 -29
0 -4 -2 -15 -4 -24 -2 -10 5 -20 16 -23 15 -5 19 -14 16 -40 -3 -19 1 -36 7
-39 6 -2 3 -5 -6 -5 -13 -1 -16 6 -13 29 2 17 0 28 -5 25 -5 -3 -6 -13 -3 -22
5 -11 3 -14 -6 -8 -10 6 -11 3 -2 -14 9 -16 9 -26 0 -42 -8 -15 -8 -19 0 -15
6 4 11 2 11 -3 0 -6 -6 -11 -12 -11 -7 -1 -1 -8 15 -16 15 -8 27 -17 27 -20 0
-3 -5 -2 -10 1 -7 4 -9 -3 -6 -19 3 -14 0 -26 -5 -26 -5 0 -9 7 -7 16 2 10 -4
19 -12 21 -13 4 -13 3 0 -6 13 -10 13 -11 0 -12 -8 -1 -19 0 -25 1 -5 1 -6 -2
-2 -7 5 -4 13 -9 18 -9 22 -3 23 -5 9 -15 -12 -8 -11 -9 6 -5 14 4 21 2 21 -8
0 -9 -4 -13 -8 -11 -18 12 -16 -27 2 -44 13 -12 17 -21 10 -26 -6 -3 -8 -11
-5 -17 4 -7 2 -8 -4 -4 -7 4 -12 2 -12 -3 0 -6 4 -11 9 -11 5 0 8 -17 7 -37
-2 -21 1 -47 5 -59 5 -14 3 -21 -6 -21 -9 0 -12 10 -10 29 2 15 0 26 -5 23 -5
-3 -6 -13 -3 -22 4 -11 3 -14 -5 -9 -9 6 -9 1 -1 -18 7 -14 15 -25 18 -24 18
2 22 -3 12 -16 -8 -10 -8 -21 -1 -40 8 -21 7 -26 -3 -21 -6 4 -4 0 6 -8 14
-11 15 -16 5 -21 -7 -3 -3 -3 10 0 15 4 31 -1 45 -13 l22 -18 -19 23 c-19 22
-19 22 -1 16 12 -5 16 -4 12 3 -4 7 -1 10 8 9 19 -3 23 -12 11 -23 -5 -5 -6
-2 -1 6 5 9 4 12 -3 7 -6 -4 -8 -14 -5 -23 4 -11 8 -13 11 -5 2 7 8 12 13 12
4 0 6 -8 3 -17 -5 -14 -4 -15 4 -4 6 8 8 20 5 28 -4 9 0 11 13 6 13 -5 15 -3
9 8 -7 12 -6 12 7 1 13 -10 17 -10 21 0 4 11 6 10 6 0 1 -7 6 -10 13 -6 7 5 9
2 4 -7 -4 -8 0 -5 8 5 10 13 16 15 16 7 0 -10 3 -11 14 -2 10 8 16 9 21 1 3
-6 11 -8 16 -5 5 4 9 1 9 -5 0 -7 -7 -10 -15 -6 -8 3 -15 1 -15 -4 0 -19 31
-10 40 13 6 16 9 18 9 5 1 -12 6 -15 18 -11 12 5 15 2 10 -10 -3 -9 -2 -17 3
-17 6 0 10 11 10 25 0 14 5 25 11 25 5 0 8 -4 5 -8 -3 -5 11 -9 30 -10 19 -1
39 -4 44 -7 5 -3 12 0 16 6 5 8 3 9 -6 4 -9 -5 -11 -4 -6 4 6 8 12 9 20 2 9
-7 16 -7 23 0 8 8 13 8 17 0 4 -6 16 -11 27 -11 14 0 18 4 13 13 -5 8 -2 8 9
-2 9 -7 17 -10 17 -6 0 4 7 2 15 -5 19 -16 49 5 40 28 -4 12 -3 12 9 3 11 -9
16 -9 22 0 4 8 3 9 -4 5 -7 -4 -12 -3 -12 2 0 17 13 22 29 9 14 -10 14 -10 3
5 -8 9 -21 14 -30 11 -13 -4 -14 -3 -3 5 9 7 10 11 2 17 -9 5 -9 11 0 22 10
11 10 16 0 23 -11 6 -11 8 0 12 10 3 11 9 4 19 -9 13 -11 32 -5 52 7 20 5 33
-4 46 -8 11 -8 13 2 7 7 -4 12 -1 12 9 0 9 -4 14 -8 11 -9 -6 -7 32 3 58 5 12
3 21 -6 27 -12 7 -12 9 1 9 10 0 11 3 2 12 -8 8 -8 17 0 31 7 14 7 22 -2 27
-9 6 -9 9 1 12 10 3 11 9 4 19 -9 13 -11 32 -5 52 6 19 5 33 -5 39 -6 5 -6 8
3 8 6 0 12 7 12 16 0 8 -4 13 -8 10 -4 -2 -7 8 -6 22 1 15 3 27 4 27 1 0 3 8
5 18 2 9 -2 17 -8 17 -7 0 -6 4 3 10 11 7 12 12 3 21 -8 8 -9 18 -2 31 7 13 6
18 -3 18 -10 0 -9 3 1 9 12 8 12 12 2 24 -9 11 -9 17 0 22 8 6 7 10 -2 16 -9
5 -10 9 -2 9 6 0 9 9 6 20 -3 12 0 20 6 20 7 0 9 -5 6 -10 -3 -6 1 -13 9 -16
9 -3 13 -10 10 -15 -3 -5 -9 -7 -13 -5 -4 3 -7 -5 -7 -18 0 -18 6 -22 27 -22
16 0 26 3 23 8 -3 5 -10 6 -15 3 -17 -11 -31 6 -17 22 18 22 19 43 0 36 -9 -4
-13 -2 -9 4 3 5 -3 20 -14 31 -11 12 -15 22 -9 22 6 0 8 4 5 10 -4 6 1 7 11 3
12 -4 15 -3 10 5 -4 7 -15 12 -24 12 -10 1 -5 6 13 15 17 7 24 14 17 14 -7 1
-11 5 -7 10 3 5 1 12 -4 16 -6 3 -8 -3 -6 -15 2 -11 -1 -20 -7 -20 -5 0 -8 7
-4 15 3 8 0 15 -7 15 -8 0 -9 2 -1 8 17 11 12 78 -5 74 -7 -1 -24 4 -37 13
-27 18 -44 19 -44 4 0 -6 7 -8 16 -5 8 3 12 2 9 -4 -8 -12 -16 -12 -34 -1 -12
8 -12 12 -2 25 9 11 10 16 2 16 -6 0 -11 -4 -11 -9 0 -13 -35 -19 -54 -9 -9 5
-26 11 -37 13 -16 3 -18 1 -10 -9 6 -7 7 -17 3 -22 -4 -4 1 -2 11 5 15 12 20
12 30 1 10 -10 9 -12 -5 -7 -9 3 -18 1 -20 -5 -3 -7 -10 -8 -20 -2 -16 9 -18
13 -18 33 0 6 -9 9 -20 8 -12 -1 -18 -7 -16 -14 3 -7 -2 -13 -10 -13 -9 0 -12
-5 -8 -12 5 -10 4 -10 -6 -1 -11 10 -11 15 0 28 11 13 10 15 -3 10 -8 -4 -17
-15 -20 -26 -6 -21 -38 -17 -34 4 1 7 -5 10 -13 8 -8 -2 -23 -3 -32 -3 -10 0
-18 -4 -18 -9 0 -6 5 -7 10 -4 6 3 10 1 10 -4 0 -16 -20 -13 -26 4 -4 8 -10
15 -16 15 -5 0 -6 -4 -3 -10 3 -5 3 -10 0 -10 -9 0 -35 27 -30 32 2 2 -5 4
-16 4 -11 0 -23 -4 -26 -9z m266 -23 c-6 -8 -17 -14 -23 -13 -7 0 -6 2 2 6 6
2 12 11 12 19 0 9 5 12 10 9 8 -5 7 -11 -1 -21z m-114 6 c-3 -5 -12 -10 -18
-10 -7 0 -6 4 3 10 19 12 23 12 15 0z m230 -10 c-3 -5 -12 -10 -18 -10 -7 0
-6 4 3 10 19 12 23 12 15 0z m125 -30 c0 -5 -4 -10 -10 -10 -5 0 -10 5 -10 10
0 6 5 10 10 10 6 0 10 -4 10 -10z m-635 -167 c-1 -10 1 -27 6 -39 5 -15 3 -21
-7 -21 -14 0 -19 12 -14 32 2 6 2 18 2 28 0 9 3 17 8 17 4 0 7 -8 5 -17z m1
-103 c0 -30 -11 -40 -19 -17 -4 10 9 47 17 47 1 0 2 -13 2 -30z m0 -160 c0
-30 -11 -40 -19 -17 -4 10 9 47 17 47 1 0 2 -13 2 -30z m1 -151 c2 -16 -1 -19
-9 -11 -5 5 -7 15 -4 21 10 15 12 14 13 -10z m8 -177 c-3 -3 -11 0 -18 7 -9
10 -8 11 6 5 10 -3 15 -9 12 -12z m30 -292 c3 -5 1 -10 -4 -10 -6 0 -11 5 -11
10 0 6 2 10 4 10 3 0 8 -4 11 -10z m569 -12 c-3 -4 -9 -8 -15 -8 -5 0 -9 4 -9
8 0 5 7 9 15 9 8 0 12 -4 9 -9z"/>
<path d="M2573 3095 c-3 -9 -3 -18 -1 -21 3 -3 8 4 11 16 6 23 -1 27 -10 5z"/>
<path d="M2641 3100 c7 -5 16 -7 20 -4 4 2 9 -2 12 -10 7 -17 26 -16 56 4 l22
15 -24 0 c-13 0 -23 -5 -20 -11 2 -6 -3 -11 -12 -11 -9 0 -14 5 -12 11 3 7 -8
12 -25 13 -20 0 -26 -2 -17 -7z"/>
<path d="M2510 3096 c0 -2 8 -10 18 -17 15 -13 16 -12 3 4 -13 16 -21 21 -21
13z"/>
<path d="M1636 3082 c-3 -5 1 -9 9 -9 8 0 12 4 9 9 -3 4 -7 8 -9 8 -2 0 -6 -4
-9 -8z"/>
<path d="M2927 3079 c7 -7 15 -10 18 -7 3 3 -2 9 -12 12 -14 6 -15 5 -6 -5z"/>
<path d="M1015 3051 c-3 -5 -2 -12 3 -15 5 -3 9 1 9 9 0 17 -3 19 -12 6z"/>
<path d="M1046 3039 c-13 -19 -12 -49 1 -49 3 0 3 6 0 14 -3 7 1 23 9 35 8 11
13 21 10 21 -3 0 -12 -10 -20 -21z"/>
<path d="M2915 3049 c-11 -16 -1 -19 13 -3 7 8 8 14 3 14 -5 0 -13 -5 -16 -11z"/>
<path d="M2954 3045 c-4 -8 -11 -12 -17 -8 -5 3 -7 2 -4 -4 7 -11 43 -11 54 1
5 4 4 7 -2 6 -21 -5 -29 1 -15 10 10 7 11 10 2 10 -7 0 -15 -7 -18 -15z"/>
<path d="M2390 3030 c-6 -11 -8 -20 -6 -20 3 0 10 9 16 20 6 11 8 20 6 20 -3
0 -10 -9 -16 -20z"/>
<path d="M1550 3015 c-10 -12 -9 -16 4 -21 9 -4 20 -4 23 0 4 3 -2 6 -13 6
-16 0 -16 2 -4 10 8 5 12 12 9 15 -4 3 -12 -1 -19 -10z"/>
<path d="M1695 3005 c0 -13 3 -21 8 -18 4 2 7 10 7 18 0 8 -3 16 -7 18 -5 3
-8 -5 -8 -18z"/>
<path d="M2996 3022 c-2 -4 4 -9 15 -9 11 -1 17 2 14 8 -7 11 -22 12 -29 1z"/>
<path d="M3045 3019 c-4 -6 -5 -12 -2 -15 2 -3 7 2 10 11 7 17 1 20 -8 4z"/>
<path d="M3090 3021 c0 -6 4 -13 10 -16 6 -3 7 1 4 9 -7 18 -14 21 -14 7z"/>
<path d="M1007 3001 c-3 -13 -1 -18 9 -14 7 2 10 11 7 19 -7 19 -10 18 -16 -5z"/>
<path d="M924 2974 c-18 -14 -18 -15 4 -4 12 6 22 13 22 15 0 8 -5 6 -26 -11z"/>
<path d="M1560 2975 c0 -2 6 -8 13 -14 10 -8 14 -7 14 2 0 8 -6 14 -14 14 -7
0 -13 -1 -13 -2z"/>
<path d="M3114 2958 c-5 -7 -2 -8 6 -3 8 5 19 -1 31 -16 10 -13 19 -19 19 -12
0 6 -5 15 -10 18 -6 4 -8 10 -6 14 3 4 -4 7 -14 8 -11 1 -23 -3 -26 -9z"/>
<path d="M3194 2953 c4 -8 2 -13 -6 -13 -7 0 -5 -5 6 -11 10 -6 14 -14 9 -18
-5 -3 8 -21 28 -39 23 -20 40 -29 44 -22 4 6 3 10 -2 9 -20 -4 -27 2 -13 12
13 9 13 10 -2 6 -24 -8 -52 25 -35 42 9 10 9 12 -3 9 -8 -2 -14 2 -15 9 0 6
-4 15 -9 20 -5 5 -6 3 -2 -4z"/>
<path d="M870 2940 c-9 -6 -10 -10 -3 -10 6 0 15 5 18 10 8 12 4 12 -15 0z"/>
<path d="M1655 2940 c3 -5 8 -10 11 -10 2 0 4 5 4 10 0 6 -5 10 -11 10 -5 0
-7 -4 -4 -10z"/>
<path d="M2400 2940 c-12 -7 -10 -9 7 -7 12 0 19 5 17 9 -6 10 -6 10 -24 -2z"/>
<path d="M1558 2923 c7 -3 16 -2 19 1 4 3 -2 6 -13 5 -11 0 -14 -3 -6 -6z"/>
<path d="M3235 2911 c-6 -11 13 -26 22 -17 4 3 1 6 -6 6 -7 0 -9 5 -6 10 3 6
4 10 1 10 -3 0 -7 -4 -11 -9z"/>
<path d="M1556 2901 c-4 -5 -2 -12 3 -15 5 -4 12 -2 15 3 4 5 2 12 -3 15 -5 4
-12 2 -15 -3z"/>
<path d="M1593 2903 c4 -3 1 -13 -6 -22 -11 -14 -10 -14 5 -2 16 12 16 31 1
31 -4 0 -3 -3 0 -7z"/>
<path d="M1675 2901 c-3 -5 -2 -12 3 -15 5 -3 9 1 9 9 0 17 -3 19 -12 6z"/>
<path d="M2400 2880 c-9 -6 -10 -10 -3 -10 6 0 15 5 18 10 8 12 4 12 -15 0z"/>
<path d="M2493 2868 c-2 -18 0 -20 7 -8 12 18 13 30 2 30 -4 0 -9 -10 -9 -22z"/>
<path d="M806 2866 c5 -13 4 -17 -4 -12 -6 3 -13 2 -16 -3 -11 -17 11 -21 24
-5 10 12 11 17 1 27 -10 9 -11 8 -5 -7z"/>
<path d="M1666 2862 c-3 -5 1 -9 9 -9 8 0 15 4 15 9 0 4 -4 8 -9 8 -6 0 -12
-4 -15 -8z"/>
<path d="M3286 2841 c-3 -5 2 -19 12 -32 15 -17 21 -19 27 -9 5 9 4 11 -3 6
-7 -4 -12 -3 -12 3 0 5 3 11 8 14 4 2 2 2 -5 1 -17 -4 -26 13 -11 19 9 4 10 6
1 6 -6 1 -14 -3 -17 -8z"/>
<path d="M750 2826 c0 -2 7 -6 15 -10 8 -3 15 -1 15 4 0 6 -7 10 -15 10 -8 0
-15 -2 -15 -4z"/>
<path d="M1570 2819 c0 -5 -5 -7 -12 -3 -7 5 -8 3 -3 -6 4 -7 2 -15 -5 -20 -8
-5 -7 -9 5 -13 11 -5 14 -3 9 5 -5 8 -1 9 12 4 15 -5 16 -4 7 5 -6 6 -9 18 -6
25 3 8 2 14 -1 14 -3 0 -6 -5 -6 -11z"/>
<path d="M1593 2815 c0 -8 4 -12 9 -9 5 3 6 10 3 15 -9 13 -12 11 -12 -6z"/>
<path d="M3356 2807 c3 -10 9 -15 12 -12 3 3 0 11 -7 18 -10 9 -11 8 -5 -6z"/>
<path d="M742 2793 c10 -13 8 -18 -11 -34 -13 -11 -20 -19 -16 -19 14 0 50 35
50 49 0 8 -8 15 -18 17 -15 2 -16 0 -5 -13z"/>
<path d="M716 2773 c-6 -14 -5 -15 5 -6 7 7 10 15 7 18 -3 3 -9 -2 -12 -12z"/>
<path d="M3329 2788 c-8 -26 -5 -36 8 -31 11 4 12 8 3 13 -9 6 -9 9 1 13 10 4
10 6 2 6 -7 1 -13 0 -14 -1z"/>
<path d="M2375 2750 c-3 -5 -4 -10 0 -10 3 0 1 -9 -5 -21 -11 -19 -10 -20 10
-9 16 8 19 15 11 24 -6 7 -8 16 -4 19 3 4 4 7 0 7 -3 0 -9 -4 -12 -10z"/>
<path d="M1560 2735 c0 -2 6 -8 13 -14 10 -8 14 -7 14 2 0 8 -6 14 -14 14 -7
0 -13 -1 -13 -2z"/>
<path d="M690 2720 c0 -5 5 -10 10 -10 6 0 10 5 10 10 0 6 -4 10 -10 10 -5 0
-10 -4 -10 -10z"/>
<path d="M1676 2722 c-3 -5 1 -9 9 -9 8 0 15 4 15 9 0 4 -4 8 -9 8 -6 0 -12
-4 -15 -8z"/>
<path d="M3386 2718 c3 -5 10 -6 15 -3 13 9 11 12 -6 12 -8 0 -12 -4 -9 -9z"/>
<path d="M2388 2698 c-9 -5 -6 -7 9 -5 12 2 25 6 28 8 8 9 -23 6 -37 -3z"/>
<path d="M3370 2703 c0 -5 7 -18 15 -29 13 -18 14 -18 8 4 -5 22 -23 41 -23
25z"/>
<path d="M1565 2690 c-16 -7 -17 -9 -3 -9 9 -1 20 4 23 9 7 11 7 11 -20 0z"/>
<path d="M2379 2675 c-1 -3 -2 -13 -3 -22 -1 -10 -5 -23 -9 -30 -4 -6 -3 -14
3 -18 6 -4 8 -11 5 -16 -9 -14 25 -23 37 -11 8 8 4 9 -12 5 -15 -4 -21 -2 -16
5 3 6 2 14 -4 17 -8 5 -7 11 1 21 6 7 15 11 20 8 5 -3 9 -1 9 4 0 6 -7 13 -16
16 -8 3 -12 10 -9 16 3 5 4 10 1 10 -3 0 -7 -2 -7 -5z"/>
<path d="M1559 2663 c-1 -4 -1 -12 0 -17 1 -5 -3 -12 -9 -16 -8 -5 -6 -9 5
-13 11 -5 14 -3 9 5 -5 8 -2 9 11 4 14 -5 16 -4 7 7 -7 8 -9 16 -6 19 3 3 1 9
-5 13 -6 3 -12 3 -12 -2z"/>
<path d="M2493 2640 c0 -23 3 -28 9 -16 5 9 5 23 0 32 -6 12 -9 7 -9 -16z"/>
<path d="M1556 2587 c3 -10 9 -15 12 -12 3 3 0 11 -7 18 -10 9 -11 8 -5 -6z"/>
<path d="M1680 2560 c0 -5 5 -10 10 -10 6 0 10 5 10 10 0 6 -4 10 -10 10 -5 0
-10 -4 -10 -10z"/>
<path d="M2485 2559 c-3 -4 2 -6 10 -5 21 3 28 13 10 13 -9 0 -18 -4 -20 -8z"/>
<path d="M2379 2555 c-1 -3 -2 -13 -3 -22 -1 -10 -5 -23 -9 -30 -4 -6 -2 -15
4 -19 8 -5 8 -8 0 -14 -7 -4 -3 -10 12 -17 18 -9 24 -8 24 2 0 8 -7 11 -15 7
-10 -3 -13 -1 -8 6 3 6 1 14 -5 17 -7 5 -3 15 12 31 12 13 26 21 32 17 6 -3 7
-1 3 6 -6 9 -11 9 -22 0 -13 -10 -18 -6 -15 14 1 8 -8 10 -10 2z"/>
<path d="M3479 2548 c-5 -18 -6 -38 -1 -34 7 8 12 36 6 36 -2 0 -4 -1 -5 -2z"/>
<path d="M2541 2524 c0 -11 3 -14 6 -6 3 7 2 16 -1 19 -3 4 -6 -2 -5 -13z"/>
<path d="M590 2523 c0 -6 8 -17 18 -24 16 -13 16 -13 2 6 -8 11 -16 22 -17 24
-2 2 -3 0 -3 -6z"/>
<path d="M1475 2510 c-2 -3 5 -6 15 -7 11 -1 22 2 24 5 3 4 -4 8 -15 8 -11 0
-22 -3 -24 -6z"/>
<path d="M2415 2509 c-4 -6 -5 -12 -2 -15 2 -3 7 2 10 11 7 17 1 20 -8 4z"/>
<path d="M1440 2500 c-13 -8 -12 -10 3 -10 10 0 16 -4 13 -8 -6 -10 40 -9 50
1 4 3 -3 5 -14 2 -12 -2 -25 2 -29 10 -6 10 -13 11 -23 5z"/>
<path d="M1675 2481 c-3 -5 -2 -12 3 -15 5 -3 9 1 9 9 0 17 -3 19 -12 6z"/>
<path d="M3473 2483 c4 -3 1 -13 -6 -22 -11 -14 -10 -14 5 -2 16 12 16 31 1
31 -4 0 -3 -3 0 -7z"/>
<path d="M2626 2463 c-6 -14 -5 -15 5 -6 7 7 10 15 7 18 -3 3 -9 -2 -12 -12z"/>
<path d="M605 2459 c-4 -6 -5 -12 -2 -15 2 -3 7 2 10 11 7 17 1 20 -8 4z"/>
<path d="M1337 2441 c-10 -12 -9 -13 3 -6 20 13 52 17 46 7 -3 -5 1 -9 8 -9 7
0 13 6 13 12 0 17 -56 14 -70 -4z"/>
<path d="M2653 2445 c0 -8 4 -12 9 -9 5 3 6 10 3 15 -9 13 -12 11 -12 -6z"/>
<path d="M3443 2437 c0 -7 9 -14 20 -14 11 -1 18 -1 16 0 -2 2 -11 8 -20 15
-12 9 -16 9 -16 -1z"/>
<path d="M2377 2433 c-2 -5 2 -19 9 -33 10 -18 14 -20 14 -8 0 9 -5 20 -10 23
-6 4 -8 11 -5 16 4 5 4 9 1 9 -3 0 -7 -3 -9 -7z"/>
<path d="M593 2415 c0 -8 4 -12 9 -9 4 3 8 9 8 15 0 5 -4 9 -8 9 -5 0 -9 -7
-9 -15z"/>
<path d="M3450 2401 c0 -5 8 -15 18 -22 15 -12 16 -12 5 2 -7 9 -10 19 -6 22
3 4 1 7 -5 7 -7 0 -12 -4 -12 -9z"/>
<path d="M2365 2381 c-3 -5 -1 -12 5 -16 6 -4 7 -12 4 -18 -4 -7 -1 -6 7 2 11
10 11 15 1 18 -6 3 -10 9 -6 14 3 5 3 9 0 9 -3 0 -7 -4 -11 -9z"/>
<path d="M3495 2381 c-3 -5 -2 -12 3 -15 5 -3 9 1 9 9 0 17 -3 19 -12 6z"/>
<path d="M2390 2329 c0 -5 5 -7 10 -4 6 3 10 8 10 11 0 2 -4 4 -10 4 -5 0 -10
-5 -10 -11z"/>
<path d="M1278 2303 c7 -3 16 -2 19 1 4 3 -2 6 -13 5 -11 0 -14 -3 -6 -6z"/>
<path d="M2367 2304 c-4 -4 -3 -12 1 -18 4 -6 7 -15 7 -20 0 -5 6 -10 13 -12
7 -1 8 0 3 2 -5 3 -7 16 -5 30 4 23 -5 32 -19 18z"/>
<path d="M576 2285 c-3 -8 -1 -15 4 -15 6 0 10 7 10 15 0 8 -2 15 -4 15 -2 0
-6 -7 -10 -15z"/>
<path d="M606 2263 c2 -6 -2 -13 -9 -16 -6 -2 -2 -7 8 -11 11 -4 16 -4 12 0
-4 4 -1 14 6 22 8 11 8 14 0 9 -6 -4 -13 -4 -16 0 -2 5 -2 3 -1 -4z"/>
<path d="M1684 2259 c-3 -6 -2 -15 3 -20 5 -5 9 -1 9 11 0 23 -2 24 -12 9z"/>
<path d="M1710 2249 c0 -5 5 -7 10 -4 6 3 10 8 10 11 0 2 -4 4 -10 4 -5 0 -10
-5 -10 -11z"/>
<path d="M2795 2249 c-4 -5 -4 -13 -1 -16 3 -4 6 0 6 8 0 11 2 11 10 -1 6 -9
10 -10 10 -3 0 17 -17 25 -25 12z"/>
<path d="M3495 2240 c-3 -5 -1 -10 4 -10 6 0 11 5 11 10 0 6 -2 10 -4 10 -3 0
-8 -4 -11 -10z"/>
<path d="M2379 2235 c-1 -3 -3 -14 -4 -25 -1 -11 -3 -21 -5 -22 -1 -2 -3 -13
-4 -25 -2 -14 2 -19 11 -16 10 4 11 9 3 18 -8 10 -7 16 7 24 10 6 13 11 6 11
-6 0 -10 9 -8 20 3 17 -2 30 -6 15z"/>
<path d="M573 2211 c0 -11 5 -18 9 -15 4 3 5 11 1 19 -7 21 -12 19 -10 -4z"/>
<path d="M3466 2214 c-9 -23 -8 -24 12 -23 12 0 13 2 3 6 -10 4 -10 7 -1 13 8
5 8 10 2 14 -5 3 -13 -1 -16 -10z"/>
<path d="M1690 2211 c0 -10 19 -25 25 -20 1 2 -3 10 -11 17 -8 7 -14 8 -14 3z"/>
<path d="M1668 2199 c7 -9 11 -22 10 -29 -2 -7 3 -14 10 -15 7 -2 8 -1 3 1 -6
3 -8 11 -5 18 3 7 -3 19 -13 27 -16 13 -17 12 -5 -2z"/>
<path d="M1259 2173 c-7 -10 -9 -15 -5 -11 5 4 15 3 22 -3 9 -7 12 -6 10 5 -3
25 -12 28 -27 9z"/>
<path d="M3495 2160 c2 -27 10 -33 12 -10 1 11 -2 22 -6 24 -4 3 -7 -4 -6 -14z"/>
<path d="M2392 2141 c-11 -7 -11 -9 0 -14 9 -3 15 1 15 9 0 8 -1 14 -1 14 -1
0 -7 -4 -14 -9z"/>
<path d="M576 2111 c-3 -5 2 -8 12 -7 10 0 16 -5 14 -14 -12 -48 -11 -58 4
-64 15 -6 15 -4 3 10 -8 10 -14 18 -13 18 0 1 6 12 13 25 11 19 11 25 0 32
-18 11 -26 11 -33 0z"/>
<path d="M2375 2078 l-20 -21 23 12 c12 6 22 16 22 21 0 13 -2 12 -25 -12z"/>
<path d="M1681 2056 c-9 -11 -9 -16 1 -22 7 -4 10 -4 6 1 -4 4 -3 14 3 22 6 7
9 13 6 13 -2 0 -10 -6 -16 -14z"/>
<path d="M2790 2066 c0 -2 7 -7 16 -10 8 -3 12 -2 9 4 -6 10 -25 14 -25 6z"/>
<path d="M3496 2053 c-6 -14 -5 -15 5 -6 7 7 10 15 7 18 -3 3 -9 -2 -12 -12z"/>
<path d="M2790 2040 c0 -5 5 -10 11 -10 5 0 7 5 4 10 -3 6 -8 10 -11 10 -2 0
-4 -4 -4 -10z"/>
<path d="M1706 2027 c3 -10 9 -15 12 -12 3 3 0 11 -7 18 -10 9 -11 8 -5 -6z"/>
<path d="M575 2011 c-3 -5 -2 -12 3 -15 5 -3 9 1 9 9 0 17 -3 19 -12 6z"/>
<path d="M2810 2013 c0 -15 18 -35 23 -27 3 5 -1 15 -9 22 -8 7 -14 9 -14 5z"/>
<path d="M1253 1995 c0 -8 4 -12 9 -9 4 3 8 9 8 15 0 5 -4 9 -8 9 -5 0 -9 -7
-9 -15z"/>
<path d="M3496 1993 c-6 -14 -5 -15 5 -6 7 7 10 15 7 18 -3 3 -9 -2 -12 -12z"/>
<path d="M1690 1986 c0 -2 7 -7 16 -10 8 -3 12 -2 9 4 -6 10 -25 14 -25 6z"/>
<path d="M2795 1980 c3 -5 8 -10 11 -10 2 0 4 5 4 10 0 6 -5 10 -11 10 -5 0
-7 -4 -4 -10z"/>
<path d="M1270 1971 c0 -6 4 -12 8 -15 5 -3 9 1 9 9 0 8 -4 15 -9 15 -4 0 -8
-4 -8 -9z"/>
<path d="M1965 1970 c-4 -6 -11 -7 -17 -4 -7 4 -8 2 -4 -4 10 -16 23 -15 30 3
6 17 0 20 -9 5z"/>
<path d="M2205 1970 c-3 -6 -12 -7 -18 -4 -8 4 -7 2 1 -7 11 -12 14 -12 21 0
7 11 9 11 13 0 3 -8 8 -11 12 -8 4 3 0 12 -8 18 -10 8 -16 9 -21 1z"/>
<path d="M1875 1960 c-2 -3 5 -7 16 -7 10 -1 19 2 19 6 0 9 -29 10 -35 1z"/>
<path d="M2100 1960 c0 -6 7 -10 15 -10 8 0 15 2 15 4 0 2 -7 6 -15 10 -8 3
-15 1 -15 -4z"/>
<path d="M2277 1953 c3 -7 6 -13 8 -13 2 0 5 6 8 13 3 8 -1 14 -8 14 -7 0 -11
-6 -8 -14z"/>
<path d="M2815 1960 c-3 -5 -1 -10 4 -10 6 0 11 5 11 10 0 6 -2 10 -4 10 -3 0
-8 -4 -11 -10z"/>
<path d="M1259 1948 c-13 -39 10 -73 33 -50 8 8 5 9 -11 5 -17 -4 -20 -2 -15
11 3 9 11 13 18 9 6 -4 5 1 -3 10 -12 16 -20 21 -22 15z"/>
<path d="M1735 1940 c-2 -3 5 -6 15 -7 11 -1 22 2 24 5 3 4 -4 8 -15 8 -11 0
-22 -3 -24 -6z"/>
<path d="M2015 1941 c-3 -5 0 -13 6 -17 7 -4 9 -3 5 4 -3 5 0 13 6 15 9 4 10
6 1 6 -6 1 -14 -3 -18 -8z"/>
<path d="M2170 1940 c0 -5 5 -10 11 -10 5 0 7 5 4 10 -3 6 -8 10 -11 10 -2 0
-4 -4 -4 -10z"/>
<path d="M2050 1921 c0 -6 4 -13 10 -16 6 -3 7 1 4 9 -7 18 -14 21 -14 7z"/>
<path d="M2125 1920 c-3 -6 1 -7 9 -4 18 7 21 14 7 14 -6 0 -13 -4 -16 -10z"/>
<path d="M2266 1922 c-3 -5 1 -9 9 -9 8 0 12 4 9 9 -3 4 -7 8 -9 8 -2 0 -6 -4
-9 -8z"/>
<path d="M3495 1919 c-4 -6 -5 -12 -2 -15 2 -3 7 2 10 11 7 17 1 20 -8 4z"/>
<path d="M2798 1873 c7 -3 16 -2 19 1 4 3 -2 6 -13 5 -11 0 -14 -3 -6 -6z"/>
<path d="M575 1851 c-3 -5 -2 -12 3 -15 5 -3 9 1 9 9 0 17 -3 19 -12 6z"/>
<path d="M3466 1851 c-4 -5 3 -7 14 -4 23 6 26 13 6 13 -8 0 -17 -4 -20 -9z"/>
<path d="M3496 1822 c-2 -4 -1 -14 4 -22 7 -11 9 -9 7 8 -1 24 -3 26 -11 14z"/>
<path d="M2775 1809 c-4 -6 -5 -12 -2 -15 2 -3 7 2 10 11 7 17 1 20 -8 4z"/>
<path d="M2805 1800 c3 -5 1 -10 -6 -10 -7 0 -9 -3 -6 -7 4 -3 2 -12 -5 -20
-6 -7 -8 -16 -4 -20 3 -3 6 -1 6 6 0 7 5 9 10 6 6 -4 10 -3 9 2 -4 22 2 34 14
27 8 -5 8 -2 -2 9 -15 18 -26 23 -16 7z"/>
<path d="M570 1783 c0 -6 7 -16 15 -23 13 -11 13 -15 3 -21 -10 -7 -9 -9 3 -9
9 0 20 7 23 16 3 8 2 12 -3 9 -5 -3 -17 5 -25 17 -9 12 -16 17 -16 11z"/>
<path d="M1300 1760 c-9 -6 -10 -10 -3 -10 6 0 15 5 18 10 8 12 4 12 -15 0z"/>
<path d="M3460 1721 c0 -10 19 -25 25 -20 1 2 -3 10 -11 17 -8 7 -14 8 -14 3z"/>
<path d="M603 1685 c0 -8 4 -15 9 -15 4 0 8 4 8 9 0 6 -4 12 -8 15 -5 3 -9 -1
-9 -9z"/>
<path d="M2786 1674 c-4 -9 -4 -19 -1 -22 3 -3 5 0 5 7 0 7 4 9 10 6 6 -3 7 1
4 9 -8 20 -10 20 -18 0z"/>
<path d="M1286 1669 c4 -6 0 -15 -7 -20 -7 -4 -11 -10 -8 -14 3 -3 13 3 23 14
15 17 15 19 1 25 -10 4 -14 2 -9 -5z"/>
<path d="M3474 1649 c-3 -6 -2 -15 3 -20 5 -5 9 -1 9 11 0 23 -2 24 -12 9z"/>
<path d="M574 1643 c4 -4 16 -8 28 -10 28 -4 18 6 -12 12 -12 2 -20 1 -16 -2z"/>
<path d="M2763 1605 c0 -7 6 -11 14 -8 7 3 13 6 13 8 0 2 -6 5 -13 8 -8 3 -14
-1 -14 -8z"/>
<path d="M3465 1613 c3 -3 0 -11 -5 -18 -7 -8 -5 -12 4 -12 14 0 16 22 3 32
-4 3 -5 2 -2 -2z"/>
<path d="M2745 1581 c4 -7 2 -18 -5 -26 -18 -21 5 -27 24 -6 17 18 17 20 -4
31 -16 9 -20 9 -15 1z m25 -15 c0 -2 -8 -10 -17 -17 -16 -13 -17 -12 -4 4 13
16 21 21 21 13z"/>
<path d="M1329 1568 c-6 -20 -6 -37 0 -34 10 7 41 -31 33 -40 -4 -4 -1 -4 6 0
8 5 21 1 33 -10 20 -18 49 -28 48 -16 -3 21 2 32 13 26 6 -4 8 -3 5 4 -4 5
-17 8 -29 4 -12 -3 -17 -7 -10 -10 7 -2 9 -8 6 -13 -4 -6 -11 -6 -20 2 -10 8
-11 16 -3 33 9 19 9 19 -4 4 -12 -15 -17 -16 -32 -4 -18 13 -18 14 1 24 10 6
14 12 7 12 -6 0 -15 -4 -18 -10 -4 -6 -11 -5 -19 3 -8 6 -12 15 -9 20 2 4 2 7
-1 7 -3 0 -6 -1 -7 -2z"/>
<path d="M2695 1520 c6 -9 -7 -13 -48 -13 -14 0 -15 -3 -6 -13 9 -11 15 -11
25 -3 7 6 18 8 24 4 5 -3 14 -4 20 0 11 7 2 35 -12 35 -5 0 -6 -4 -3 -10z"/>
<path d="M1585 1479 c-4 -6 -5 -12 -2 -15 2 -3 7 2 10 11 7 17 1 20 -8 4z"/>
<path d="M1639 1488 c-5 -18 -6 -38 -1 -34 7 8 12 36 6 36 -2 0 -4 -1 -5 -2z"/>
<path d="M1722 1478 c-15 -15 -15 -28 0 -28 6 0 8 3 5 7 -4 3 -2 12 4 20 14
16 7 17 -9 1z"/>
<path d="M1966 1478 c3 -5 10 -6 15 -3 13 9 11 12 -6 12 -8 0 -12 -4 -9 -9z"/>
<path d="M2517 1479 c7 -7 15 -10 18 -7 3 3 -2 9 -12 12 -14 6 -15 5 -6 -5z"/>
<path d="M2555 1482 c2 -3 0 -12 -5 -22 -6 -12 -5 -17 5 -17 8 0 12 4 9 9 -3
5 -1 15 5 22 8 9 7 13 -4 13 -8 0 -13 -2 -10 -5z"/>
<path d="M1460 1476 c0 -2 7 -9 15 -16 9 -7 15 -8 15 -2 0 5 -7 12 -15 16 -8
3 -15 4 -15 2z"/>
<path d="M3446 1467 c3 -10 9 -15 12 -12 3 3 0 11 -7 18 -10 9 -11 8 -5 -6z"/>
<path d="M1657 1455 c-4 -8 -3 -16 1 -19 4 -3 9 4 9 15 2 23 -3 25 -10 4z"/>
<path d="M1766 1454 c-3 -8 -11 -12 -17 -8 -8 4 -9 3 -5 -5 4 -6 12 -9 17 -6
5 4 9 1 9 -5 0 -19 22 -6 31 19 6 14 5 20 -1 16 -6 -3 -10 -13 -10 -21 0 -8
-4 -13 -10 -9 -5 3 -7 12 -3 20 3 8 3 15 0 15 -3 0 -8 -7 -11 -16z"/>
<path d="M1925 1460 c-3 -6 1 -7 9 -4 18 7 21 14 7 14 -6 0 -13 -4 -16 -10z"/>
<path d="M2033 1450 c-3 -11 -9 -17 -14 -14 -5 3 -9 0 -9 -5 0 -19 22 -12 27
9 3 11 10 17 16 13 6 -3 7 -1 3 5 -10 17 -17 15 -23 -8z"/>
<path d="M2156 1458 c3 -4 11 -5 19 -1 21 7 19 12 -4 10 -11 0 -18 -5 -15 -9z"/>
<path d="M2246 1454 c-3 -8 -11 -12 -17 -8 -8 4 -9 3 -5 -5 4 -6 12 -9 17 -6
5 4 9 1 9 -5 0 -19 22 -6 31 19 6 14 5 20 -1 16 -6 -3 -10 -13 -10 -21 0 -8
-4 -13 -10 -9 -5 3 -7 12 -3 20 3 8 3 15 0 15 -3 0 -8 -7 -11 -16z"/>
<path d="M2430 1463 c0 -5 5 -15 10 -23 7 -12 9 -10 7 8 -1 19 -17 33 -17 15z"/>
<path d="M2485 1459 c4 -5 11 -7 16 -4 5 4 9 -2 9 -12 0 -15 2 -16 10 -3 11
17 9 19 -19 25 -12 2 -19 0 -16 -6z"/>
<path d="M620 1455 c0 -5 5 -17 10 -25 5 -8 10 -10 10 -5 0 6 -5 17 -10 25 -5
8 -10 11 -10 5z"/>
<path d="M1611 1444 c0 -11 3 -14 6 -6 3 7 2 16 -1 19 -3 4 -6 -2 -5 -13z"/>
<path d="M1850 1451 c0 -7 -5 -9 -12 -5 -7 5 -8 3 -3 -5 5 -9 10 -10 18 -2 6
6 8 14 4 18 -4 3 -7 1 -7 -6z"/>
<path d="M1955 1451 c-3 -5 -2 -12 3 -15 5 -3 9 1 9 9 0 17 -3 19 -12 6z"/>
<path d="M2090 1451 c0 -7 -5 -9 -12 -5 -7 5 -8 3 -3 -5 5 -9 10 -10 18 -2 6
6 8 14 4 18 -4 3 -7 1 -7 -6z"/>
<path d="M2133 1439 c-2 -19 11 -26 21 -10 3 5 0 14 -7 19 -10 8 -13 6 -14 -9z"/>
<path d="M1682 1441 c2 -7 7 -12 11 -12 12 1 9 15 -3 20 -7 2 -11 -2 -8 -8z"/>
<path d="M1890 1435 c0 -9 5 -15 11 -13 6 2 11 8 11 13 0 5 -5 11 -11 13 -6 2
-11 -4 -11 -13z"/>
<path d="M1985 1440 c3 -5 8 -10 11 -10 2 0 4 5 4 10 0 6 -5 10 -11 10 -5 0
-7 -4 -4 -10z"/>
<path d="M2405 1440 c3 -5 11 -10 16 -10 6 0 7 5 4 10 -3 6 -11 10 -16 10 -6
0 -7 -4 -4 -10z"/>
<path d="M2460 1439 c0 -5 5 -7 10 -4 6 3 10 8 10 11 0 2 -4 4 -10 4 -5 0 -10
-5 -10 -11z"/>
<path d="M3426 1434 c-8 -21 1 -34 22 -33 15 1 15 2 -1 6 -12 3 -16 10 -12 24
8 23 0 26 -9 3z"/>
<path d="M3412 1350 c-7 -11 -8 -20 -3 -20 9 0 24 30 18 36 -1 2 -8 -6 -15
-16z"/>
<path d="M654 1285 c0 -13 3 -22 7 -19 8 4 6 30 -2 38 -3 3 -5 -5 -5 -19z"/>
<path d="M3361 1267 c-13 -21 -12 -21 5 -5 10 10 16 20 13 22 -3 3 -11 -5 -18
-17z"/>
<path d="M703 1244 c27 -27 31 -36 28 -64 -2 -13 0 -13 8 -1 6 10 6 22 -2 35
-6 12 -11 24 -10 27 1 3 -10 12 -25 18 l-26 12 27 -27z"/>
<path d="M3365 1240 c-3 -6 1 -7 9 -4 18 7 21 14 7 14 -6 0 -13 -4 -16 -10z"/>
<path d="M693 1223 c4 -3 1 -13 -6 -22 -11 -14 -10 -14 5 -2 16 12 16 31 1 31
-4 0 -3 -3 0 -7z"/>
<path d="M3386 1218 c3 -4 9 -8 15 -8 5 0 9 4 9 8 0 5 -7 9 -15 9 -8 0 -12 -4
-9 -9z"/>
<path d="M3295 1160 c-3 -5 -3 -10 0 -10 3 0 -6 -10 -21 -23 -20 -17 -23 -24
-11 -24 9 0 14 4 11 8 -5 9 36 35 50 31 5 -2 4 4 -4 12 -15 19 -17 19 -25 6z"/>
<path d="M735 1140 c3 -5 8 -10 11 -10 2 0 4 5 4 10 0 6 -5 10 -11 10 -5 0 -7
-4 -4 -10z"/>
<path d="M780 1130 c-8 -5 -10 -10 -5 -10 6 0 17 5 25 10 8 5 11 10 5 10 -5 0
-17 -5 -25 -10z"/>
<path d="M839 1088 c-6 -25 -6 -38 1 -38 12 0 20 29 10 35 -6 4 -10 5 -11 3z"/>
<path d="M3173 1046 c-3 -5 -1 -6 5 -2 5 3 13 0 15 -6 4 -10 6 -10 6 0 1 7 5
11 11 7 5 -3 6 -13 3 -23 -3 -9 -3 -14 1 -11 4 4 8 15 10 26 3 15 -2 19 -21
19 -13 0 -27 -4 -30 -10z"/>
<path d="M875 1020 c3 -5 8 -10 11 -10 2 0 4 5 4 10 0 6 -5 10 -11 10 -5 0 -7
-4 -4 -10z"/>
<path d="M990 980 c-9 -6 -10 -10 -3 -10 6 0 15 5 18 10 8 12 4 12 -15 0z"/>
<path d="M3057 983 c-3 -5 4 -15 16 -23 21 -12 21 -12 7 6 -8 10 -15 20 -16
22 -1 2 -4 -1 -7 -5z"/>
<path d="M3113 963 c1 -17 4 -19 14 -11 15 12 18 22 4 14 -5 -4 -11 0 -14 6
-3 7 -4 3 -4 -9z"/>
<path d="M1059 943 c-8 -9 -8 -13 0 -13 6 0 11 5 11 11 0 5 4 8 9 4 5 -3 12
-2 15 3 9 14 -23 10 -35 -5z"/>
<path d="M2980 920 c0 -4 7 -7 15 -6 23 3 26 12 5 13 -11 1 -20 -2 -20 -7z"/>
<path d="M1195 890 c-4 -6 -11 -7 -17 -4 -7 4 -8 2 -4 -4 7 -12 36 -5 36 9 0
12 -7 11 -15 -1z"/>
<path d="M1370 894 c0 -1 8 -8 17 -15 11 -10 14 -10 9 -1 -4 6 -3 12 3 12 5 0
11 -5 13 -12 3 -8 9 -8 24 1 14 10 15 11 2 7 -10 -3 -20 -1 -23 4 -4 7 -45 11
-45 4z"/>
<path d="M2825 891 c-3 -5 -2 -12 3 -15 5 -3 9 1 9 9 0 17 -3 19 -12 6z"/>
<path d="M1464 882 c3 -5 0 -13 -6 -15 -9 -4 -10 -6 -1 -6 17 -1 25 16 12 25
-7 4 -9 3 -5 -4z"/>
<path d="M2394 869 c-19 -22 -19 -22 4 -8 12 8 22 17 22 21 0 12 -6 9 -26 -13z"/>
<path d="M2523 869 c-2 -23 3 -25 10 -4 4 8 3 16 -1 19 -4 3 -9 -4 -9 -15z"/>
<path d="M2581 874 c0 -11 3 -14 6 -6 3 7 2 16 -1 19 -3 4 -6 -2 -5 -13z"/>
<path d="M1500 870 c-9 -6 -10 -10 -3 -10 6 0 15 5 18 10 8 12 4 12 -15 0z"/>
<path d="M1818 873 c6 -2 10 -8 8 -12 -3 -4 1 -8 9 -8 11 0 12 4 4 14 -6 7
-17 13 -23 12 -7 0 -6 -2 2 -6z"/>
<path d="M2027 863 c3 -7 9 -13 13 -13 4 0 10 6 13 13 3 7 -3 13 -13 13 -10 0
-16 -6 -13 -13z"/>
<path d="M2187 863 c3 -7 9 -13 13 -13 4 0 10 6 13 13 3 7 -3 13 -13 13 -10 0
-16 -6 -13 -13z"/>
<path d="M2347 863 c3 -7 9 -13 13 -13 4 0 10 6 13 13 3 7 -3 13 -13 13 -10 0
-16 -6 -13 -13z"/>
<path d="M2450 869 c0 -15 18 -19 23 -6 3 8 -1 14 -9 14 -8 0 -14 -4 -14 -8z"/>
<path d="M2490 865 c-11 -13 -10 -14 4 -9 9 3 16 10 16 15 0 13 -6 11 -20 -6z"/>
<path d="M1355 860 c-3 -6 1 -7 9 -4 18 7 21 14 7 14 -6 0 -13 -4 -16 -10z"/>
<path d="M2546 862 c-3 -5 1 -9 9 -9 8 0 15 4 15 9 0 4 -4 8 -9 8 -6 0 -12 -4
-15 -8z"/>
<path d="M2715 860 c3 -5 8 -10 11 -10 2 0 4 5 4 10 0 6 -5 10 -11 10 -5 0 -7
-4 -4 -10z"/>
<path d="M1630 849 c0 -5 -5 -7 -12 -3 -7 4 -8 3 -4 -5 6 -9 11 -9 22 0 17 14
18 19 4 19 -5 0 -10 -5 -10 -11z"/>
<path d="M2406 847 c-16 -12 -16 -13 2 -13 10 0 19 6 19 13 0 7 -1 13 -2 13
-1 0 -9 -6 -19 -13z"/>
<path d="M1316 833 c-6 -14 -5 -15 5 -6 7 7 10 15 7 18 -3 3 -9 -2 -12 -12z"/>
<path d="M1440 840 c-9 -6 -10 -10 -3 -10 6 0 15 5 18 10 8 12 4 12 -15 0z"/>
<path d="M1476 838 c3 -5 10 -6 15 -3 13 9 11 12 -6 12 -8 0 -12 -4 -9 -9z"/>
<path d="M1570 846 c0 -2 7 -7 16 -10 8 -3 12 -2 9 4 -6 10 -25 14 -25 6z"/>
</g>
</svg>
